<svg id="Capa_1" fill="#063170" enable-background="new 0 0 510 510" height="512" viewBox="0 0 510 510" width="512" xmlns="http://www.w3.org/2000/svg"><g><path d="m75 30v210h-75v240h510v-450zm30 105h35v-30h-35v-45h105v110h-105zm135 0h35v-30h-35v-45h105v110h-105zm105 65v110h-105v-40h35v-30h-35v-40zm-105 205h35v-30h-35v-35h105v110h-105zm135 0h35v-30h-35v-35h105v110h-105zm105-95h-105v-40h35v-30h-35v-40h105zm0-140h-105v-35h35v-30h-35v-45h105zm-375 30h105v40h-105zm0 70h30v30h-30zm-75 0h45v60h90v-60h45v180h-180z"/><path d="m60 390h75v30h-75z"/></g></svg>